<svg width="16" height="16" viewBox="0 0 16 16" fill="none" xmlns="http://www.w3.org/2000/svg">
<path d="M11.7066 14C11.6 14.0004 11.4949 13.9753 11.4 13.9266L7.99996 12.1466L4.59996 13.9266C4.48956 13.9847 4.36508 14.0106 4.24068 14.0014C4.11628 13.9923 3.99695 13.9484 3.89625 13.8748C3.79555 13.8012 3.71752 13.7008 3.67104 13.585C3.62456 13.4693 3.61148 13.3428 3.6333 13.22L4.29996 9.46664L1.5533 6.79997C1.4676 6.71446 1.40681 6.60722 1.37745 6.48977C1.34809 6.37232 1.35126 6.24909 1.38663 6.13331C1.42527 6.01482 1.49635 5.90954 1.5918 5.82941C1.68725 5.74928 1.80325 5.69751 1.92663 5.67997L5.72663 5.12664L7.39996 1.70664C7.45455 1.59393 7.53979 1.49887 7.6459 1.43236C7.75202 1.36584 7.87473 1.33057 7.99996 1.33057C8.1252 1.33057 8.24791 1.36584 8.35402 1.43236C8.46014 1.49887 8.54537 1.59393 8.59996 1.70664L10.2933 5.11997L14.0933 5.67331C14.2167 5.69084 14.3327 5.74262 14.4281 5.82275C14.5236 5.90288 14.5947 6.00816 14.6333 6.12664C14.6687 6.24242 14.6718 6.36565 14.6425 6.4831C14.6131 6.60055 14.5523 6.70779 14.4666 6.79331L11.72 9.45997L12.3866 13.2133C12.4104 13.3383 12.398 13.4675 12.3507 13.5856C12.3035 13.7037 12.2234 13.8059 12.12 13.88C11.9992 13.9646 11.8539 14.0068 11.7066 14Z" fill="#E6AC39"/>
</svg>
